<svg width="11" height="11" viewBox="0 0 11 11" fill="none" xmlns="http://www.w3.org/2000/svg">
<g clip-path="url(#clip0_100_176)">
<path d="M10.1526 6.90985C10.0012 6.90985 9.87861 7.03249 9.87861 7.18381V9.61625C9.87808 10.07 9.51048 10.4377 9.05674 10.4381H1.36978C0.916044 10.4377 0.548449 10.07 0.547914 9.61625V2.47721C0.548449 2.02357 0.916044 1.65587 1.36978 1.65534H3.80222C3.95354 1.65534 4.07618 1.5327 4.07618 1.38138C4.07618 1.23017 3.95354 1.10742 3.80222 1.10742H1.36978C0.613621 1.10828 0.000856116 1.72104 0 2.47721V9.61635C0.000856116 10.3725 0.613621 10.9853 1.36978 10.9861H9.05674C9.8129 10.9853 10.4257 10.3725 10.4265 9.61635V7.18381C10.4265 7.03249 10.3039 6.90985 10.1526 6.90985Z" fill="#484646"/>
<path d="M10.3189 0.402109C9.83746 -0.0793489 9.0569 -0.0793489 8.57544 0.402109L3.68788 5.28967C3.65438 5.32317 3.6302 5.36469 3.61757 5.41028L2.97484 7.73067C2.94841 7.82581 2.97527 7.92769 3.04504 7.99757C3.11492 8.06734 3.2168 8.0942 3.31194 8.06787L5.63233 7.42504C5.67792 7.41241 5.71944 7.38823 5.75294 7.35473L10.6404 2.46706C11.1211 1.98528 11.1211 1.20536 10.6404 0.723581L10.3189 0.402109ZM4.2848 5.46775L8.2849 1.46755L9.57496 2.7576L5.57476 6.7578L4.2848 5.46775ZM4.02711 5.98484L5.05777 7.0156L3.63212 7.41059L4.02711 5.98484ZM10.253 2.07967L9.96246 2.37021L8.67229 1.08005L8.96294 0.789501C9.23037 0.522072 9.66399 0.522072 9.93142 0.789501L10.253 1.11097C10.52 1.37872 10.52 1.81202 10.253 2.07967Z" fill="#484646"/>
</g>
<defs>
<clipPath id="clip0_100_176">
<rect width="11" height="11" fill="white"/>
</clipPath>
</defs>
</svg>
