<svg width="12" height="12" viewBox="0 0 12 12" fill="none" xmlns="http://www.w3.org/2000/svg">
<rect x="0.3" y="0.3" width="11.4" height="11.4" rx="5.7" stroke="#dcacf2" stroke-width="0.6"/>
<path d="M8.57818 3.39676C8.27986 3.63573 7.9173 3.76488 7.54471 3.76488C7.17213 3.76488 6.80957 3.63573 6.51125 3.39676C6.19343 3.14335 5.81617 2.98932 5.42145 2.95181C5.02673 2.9143 4.63003 2.99478 4.27548 3.18429V3.14558C4.27548 3.09098 4.25522 3.03861 4.21916 3C4.18309 2.96139 4.13418 2.9397 4.08318 2.9397C4.03217 2.9397 3.98326 2.96139 3.94719 3C3.91113 3.03861 3.89087 3.09098 3.89087 3.14558V9.73382C3.89087 9.78842 3.91113 9.84079 3.94719 9.8794C3.98326 9.91801 4.03217 9.9397 4.08318 9.9397C4.13418 9.9397 4.18309 9.91801 4.21916 9.8794C4.25522 9.84079 4.27548 9.78842 4.27548 9.73382V6.9614C4.57203 6.74778 4.92318 6.63793 5.28051 6.647C5.63784 6.65607 5.98373 6.78362 6.27048 7.01205C6.63832 7.30663 7.08535 7.46582 7.54471 7.46582C8.00408 7.46582 8.4511 7.30663 8.81894 7.01205C8.8414 6.99276 8.85952 6.96831 8.87196 6.94051C8.88441 6.91272 8.89087 6.88229 8.89087 6.85146V3.55735C8.89087 3.51853 8.88063 3.48051 8.86132 3.44766C8.84201 3.41481 8.81442 3.38847 8.78174 3.37168C8.74905 3.35489 8.71259 3.34834 8.67658 3.35278C8.64056 3.35721 8.60645 3.37246 8.57818 3.39676ZM8.50625 6.74893C8.2087 6.96063 7.8573 7.06868 7.50016 7.05829C7.14303 7.04789 6.79762 6.91957 6.51125 6.69088C6.19343 6.43747 5.81617 6.28344 5.42145 6.24593C5.02673 6.20842 4.63003 6.2889 4.27548 6.4784V3.66729C4.57203 3.45366 4.92318 3.34381 5.28051 3.35288C5.63784 3.36195 5.98373 3.4895 6.27048 3.71793C6.58821 3.97141 6.96531 4.12571 7.35995 4.16372C7.7546 4.20173 8.15137 4.12197 8.50625 3.93329V6.74893Z" fill="#dcacf2" stroke="#dcacf2" stroke-width="0.3"/>
</svg>
