<svg width="12" height="12" viewBox="0 0 12 12" fill="none" xmlns="http://www.w3.org/2000/svg">
<rect x="0.15" y="0.15" width="11.7" height="11.7" rx="5.85" stroke="#176FF1" stroke-width="0.3"/>
<path d="M3.27574 7.89348C3.1824 7.89348 3.08907 7.86432 3.0074 7.80015C2.8149 7.65432 2.7799 7.38015 2.92574 7.18765L4.31407 5.38515C4.48324 5.16932 4.7224 5.02932 4.99657 4.99432C5.2649 4.95932 5.53907 5.03515 5.7549 5.20432L6.8224 6.04432C6.86324 6.07932 6.90407 6.07932 6.93324 6.07348C6.95657 6.07348 6.9974 6.06182 7.0324 6.01515L8.3799 4.27682C8.52574 4.08432 8.80574 4.04932 8.9924 4.20098C9.1849 4.34682 9.2199 4.62098 9.06824 4.81348L7.72074 6.55182C7.55157 6.76765 7.3124 6.90765 7.03824 6.93682C6.76407 6.97182 6.49574 6.89598 6.2799 6.72682L5.2124 5.88682C5.17157 5.85182 5.1249 5.85182 5.10157 5.85765C5.07824 5.85765 5.0374 5.86932 5.0024 5.91598L3.61407 7.71848C3.53824 7.83515 3.4099 7.89348 3.27574 7.89348Z" fill="#176FF1"/>
</svg>
