<svg width="10" height="10" viewBox="0 0 10 10" fill="none" xmlns="http://www.w3.org/2000/svg">
<path d="M8.28125 1.25H6.5625V0.9375C6.5625 0.420566 6.14193 0 5.625 0H4.375C3.85807 0 3.4375 0.420566 3.4375 0.9375V1.25H1.71875C1.28797 1.25 0.9375 1.60047 0.9375 2.03125V3.125C0.9375 3.29758 1.07742 3.4375 1.25 3.4375H1.42078L1.69076 9.10709C1.71461 9.60779 2.12594 10 2.62719 10H7.37281C7.87408 10 8.28541 9.60779 8.30924 9.10709L8.57922 3.4375H8.75C8.92258 3.4375 9.0625 3.29758 9.0625 3.125V2.03125C9.0625 1.60047 8.71203 1.25 8.28125 1.25ZM4.0625 0.9375C4.0625 0.765195 4.2027 0.625 4.375 0.625H5.625C5.7973 0.625 5.9375 0.765195 5.9375 0.9375V1.25H4.0625V0.9375ZM1.5625 2.03125C1.5625 1.9451 1.6326 1.875 1.71875 1.875H8.28125C8.3674 1.875 8.4375 1.9451 8.4375 2.03125V2.8125C8.34119 2.8125 1.96158 2.8125 1.5625 2.8125V2.03125ZM7.68494 9.07736C7.67699 9.24426 7.53988 9.375 7.37281 9.375H2.62719C2.4601 9.375 2.32299 9.24426 2.31506 9.07736L2.04648 3.4375H7.95352L7.68494 9.07736Z" fill="#FF2A2A"/>
<path d="M5 8.75C5.17258 8.75 5.3125 8.61008 5.3125 8.4375V4.375C5.3125 4.20242 5.17258 4.0625 5 4.0625C4.82742 4.0625 4.6875 4.20242 4.6875 4.375V8.4375C4.6875 8.61008 4.8274 8.75 5 8.75Z" fill="#FF2A2A"/>
<path d="M6.5625 8.75C6.73508 8.75 6.875 8.61008 6.875 8.4375V4.375C6.875 4.20242 6.73508 4.0625 6.5625 4.0625C6.38992 4.0625 6.25 4.20242 6.25 4.375V8.4375C6.25 8.61008 6.3899 8.75 6.5625 8.75Z" fill="#FF2A2A"/>
<path d="M3.4375 8.75C3.61008 8.75 3.75 8.61008 3.75 8.4375V4.375C3.75 4.20242 3.61008 4.0625 3.4375 4.0625C3.26492 4.0625 3.125 4.20242 3.125 4.375V8.4375C3.125 8.61008 3.2649 8.75 3.4375 8.75Z" fill="#FF2A2A"/>
</svg>
