<svg width="2542" height="743" viewBox="0 0 2542 743" fill="none" xmlns="http://www.w3.org/2000/svg">
<path d="M7.62939e-05 0H131.619V50H7.62939e-05V0Z" fill="#1C1D1E"/>
<path d="M425 344.171H475V475H425V344.171Z" fill="#1C1D1E"/>
<rect x="425" y="50" width="50" height="235" fill="#1C1D1E"/>
<rect x="190" width="285" height="50" fill="#1C1D1E"/>
<rect x="50" y="589" width="235" height="50" fill="#1C1D1E"/>
<rect y="354" width="50" height="285" fill="#1C1D1E"/>
<path d="M475 639L343.381 639L343.381 589L475 589L475 639Z" fill="#1C1D1E"/>
<path d="M50 294.829L0 294.829L-1.14374e-05 164L50 164L50 294.829Z" fill="#1C1D1E"/>
<path d="M966.4 15.6L775.6 261.2V184.8L906 15.6H966.4ZM787.6 15.6V308H736.4V15.6H787.6ZM834 180L866.8 136L967.6 308H908.4L834 180ZM1062.73 308H1009.93L1115.53 15.6H1167.93L1273.53 308H1219.53L1195.93 240.4H1086.73L1062.73 308ZM1135.13 102.8L1101.53 197.2H1181.13L1147.53 102.8C1146.46 98.8 1145.26 94.8 1143.93 90.8C1142.6 86.8 1141.8 83.3333 1141.53 80.4C1141 83.0667 1140.06 86.5333 1138.73 90.8C1137.66 94.8 1136.46 98.8 1135.13 102.8ZM1392.6 308H1342.2V15.6H1393L1545 245.6H1530.2V15.6H1580.6V308H1530.2L1377.8 78.4H1392.6V308ZM1728.52 15.6V308H1677.32V15.6H1728.52ZM1793.32 183.6H1712.92V140.4H1790.52C1804.66 140.4 1815.46 136.933 1822.92 130C1830.39 122.8 1834.12 112.667 1834.12 99.6C1834.12 87.0667 1830.26 77.4667 1822.52 70.8C1814.79 64.1333 1803.59 60.8 1788.92 60.8H1711.32V15.6H1793.32C1822.39 15.6 1845.19 22.6667 1861.72 36.8C1878.26 50.9333 1886.52 70.2667 1886.52 94.8C1886.52 112.4 1882.26 127.2 1873.72 139.2C1865.19 150.933 1852.52 159.467 1835.72 164.8V159.2C1853.86 163.467 1867.59 171.467 1876.92 183.2C1886.26 194.933 1890.92 210.133 1890.92 228.8C1890.92 245.333 1887.19 259.6 1879.72 271.6C1872.26 283.333 1861.32 292.4 1846.92 298.8C1832.79 304.933 1815.72 308 1795.72 308H1711.32V262.8H1793.32C1807.99 262.8 1819.19 259.333 1826.92 252.4C1834.66 245.467 1838.52 235.467 1838.52 222.4C1838.52 210.133 1834.52 200.667 1826.52 194C1818.79 187.067 1807.72 183.6 1793.32 183.6ZM1990.76 308H1937.96L2043.56 15.6H2095.96L2201.56 308H2147.56L2123.96 240.4H2014.76L1990.76 308ZM2063.16 102.8L2029.56 197.2H2109.16L2075.56 102.8C2074.5 98.8 2073.3 94.8 2071.96 90.8C2070.63 86.8 2069.83 83.3333 2069.56 80.4C2069.03 83.0667 2068.1 86.5333 2066.76 90.8C2065.7 94.8 2064.5 98.8 2063.16 102.8ZM2320.63 308H2270.23V15.6H2321.03L2473.03 245.6H2458.23V15.6H2508.63V308H2458.23L2305.83 78.4H2320.63V308Z" fill="#00AEEF"/>
<path d="M787.6 445.6V738H736.4V445.6H787.6ZM852 637.2H775.2V591.6H841.2C858.8 591.6 872.133 587.2 881.2 578.4C890.533 569.333 895.2 556.8 895.2 540.8C895.2 524.8 890.533 512.533 881.2 504C872.133 495.467 859.067 491.2 842 491.2H770.4V445.6H852C871.733 445.6 888.8 449.6 903.2 457.6C917.6 465.6 928.8 476.8 936.8 491.2C944.8 505.333 948.8 522 948.8 541.2C948.8 559.867 944.8 576.533 936.8 591.2C928.8 605.6 917.6 616.933 903.2 625.2C888.8 633.2 871.733 637.2 852 637.2ZM1075.07 445.6V738H1023.87V445.6H1075.07ZM1032.67 738V690.8H1197.07V738H1032.67ZM1256.99 631.2V445.6H1308.19V628C1308.19 649.067 1313.79 665.2 1324.99 676.4C1336.19 687.6 1352.06 693.2 1372.59 693.2C1393.39 693.2 1409.39 687.6 1420.59 676.4C1431.79 664.933 1437.39 648.8 1437.39 628V445.6H1488.59V631.2C1488.59 653.867 1483.79 673.6 1474.19 690.4C1464.86 706.933 1451.53 719.867 1434.19 729.2C1416.86 738.267 1396.33 742.8 1372.59 742.8C1349.13 742.8 1328.73 738.267 1311.39 729.2C1294.06 720.133 1280.59 707.2 1270.99 690.4C1261.66 673.6 1256.99 653.867 1256.99 631.2ZM1711.57 488.8C1692.37 488.8 1675.97 493.2 1662.37 502C1648.77 510.8 1638.37 523.067 1631.17 538.8C1623.97 554.267 1620.37 572.667 1620.37 594C1620.37 615.6 1624.24 634 1631.97 649.2C1639.71 664.133 1650.37 675.467 1663.97 683.2C1677.84 690.933 1693.71 694.8 1711.57 694.8C1724.64 694.8 1736.11 693.2 1745.97 690C1756.11 686.533 1764.64 681.6 1771.57 675.2C1778.51 668.533 1783.84 660.533 1787.57 651.2C1791.57 641.867 1793.57 631.467 1793.57 620V594.4L1817.57 618.8H1705.17V573.6H1841.17V738H1797.97L1793.57 690.8L1799.57 696.8C1795.31 705.6 1788.51 713.467 1779.17 720.4C1770.11 727.333 1759.31 732.8 1746.77 736.8C1734.24 740.533 1720.64 742.4 1705.97 742.4C1678.77 742.4 1654.64 736.267 1633.57 724C1612.77 711.467 1596.37 694 1584.37 671.6C1572.64 649.2 1566.77 622.933 1566.77 592.8C1566.77 563.2 1572.77 537.067 1584.77 514.4C1597.04 491.467 1614.11 473.467 1635.97 460.4C1658.11 447.333 1683.71 440.8 1712.77 440.8C1735.17 440.8 1755.44 444.933 1773.57 453.2C1791.71 461.2 1806.51 472.533 1817.97 487.2C1829.71 501.867 1836.91 519.2 1839.57 539.2H1785.57C1781.04 521.867 1771.97 509.2 1758.37 501.2C1744.77 492.933 1729.17 488.8 1711.57 488.8ZM1979.27 445.6V738H1928.07V445.6H1979.27ZM2126.49 738H2076.09V445.6H2126.89L2278.89 675.6H2264.09V445.6H2314.49V738H2264.09L2111.69 508.4H2126.49V738Z" fill="#1C1D1E"/>
</svg>
