<svg width="2458" height="689" viewBox="0 0 2458 689" fill="none" xmlns="http://www.w3.org/2000/svg">
<path d="M0.000183105 0H121.938V46.3224H0.000183105V0Z" fill="#151A26"/>
<path d="M393.74 318.856H440.062V440.063H393.74V318.856Z" fill="#151A26"/>
<rect x="393.74" y="46.3224" width="46.3224" height="217.715" fill="#151A26"/>
<rect x="176.025" width="264.038" height="46.3224" fill="#151A26"/>
<rect x="46.3224" y="545.678" width="217.715" height="46.3224" fill="#151A26"/>
<rect y="327.962" width="46.3224" height="264.038" fill="#151A26"/>
<path d="M440.062 592L318.125 592L318.125 545.678L440.062 545.678L440.062 592Z" fill="#151A26"/>
<path d="M46.3224 273.144L0 273.144L-1.05962e-05 151.937L46.3224 151.937L46.3224 273.144Z" fill="#151A26"/>
<path d="M882.4 12.6L691.6 258.2V181.8L822 12.6H882.4ZM703.6 12.6V305H652.4V12.6H703.6ZM750 177L782.8 133L883.6 305H824.4L750 177ZM978.731 305H925.931L1031.53 12.6H1083.93L1189.53 305H1135.53L1111.93 237.4H1002.73L978.731 305ZM1051.13 99.8L1017.53 194.2H1097.13L1063.53 99.8C1062.46 95.8 1061.26 91.8 1059.93 87.8C1058.6 83.8 1057.8 80.3333 1057.53 77.4C1057 80.0667 1056.06 83.5333 1054.73 87.8C1053.66 91.8 1052.46 95.8 1051.13 99.8ZM1308.6 305H1258.2V12.6H1309L1461 242.6H1446.2V12.6H1496.6V305H1446.2L1293.8 75.4H1308.6V305ZM1644.52 12.6V305H1593.32V12.6H1644.52ZM1709.32 180.6H1628.92V137.4H1706.52C1720.66 137.4 1731.46 133.933 1738.92 127C1746.39 119.8 1750.12 109.667 1750.12 96.6C1750.12 84.0667 1746.26 74.4667 1738.52 67.8C1730.79 61.1333 1719.59 57.8 1704.92 57.8H1627.32V12.6H1709.32C1738.39 12.6 1761.19 19.6667 1777.72 33.8C1794.26 47.9333 1802.52 67.2667 1802.52 91.8C1802.52 109.4 1798.26 124.2 1789.72 136.2C1781.19 147.933 1768.52 156.467 1751.72 161.8V156.2C1769.86 160.467 1783.59 168.467 1792.92 180.2C1802.26 191.933 1806.92 207.133 1806.92 225.8C1806.92 242.333 1803.19 256.6 1795.72 268.6C1788.26 280.333 1777.32 289.4 1762.92 295.8C1748.79 301.933 1731.72 305 1711.72 305H1627.32V259.8H1709.32C1723.99 259.8 1735.19 256.333 1742.92 249.4C1750.66 242.467 1754.52 232.467 1754.52 219.4C1754.52 207.133 1750.52 197.667 1742.52 191C1734.79 184.067 1723.72 180.6 1709.32 180.6ZM1906.76 305H1853.96L1959.56 12.6H2011.96L2117.56 305H2063.56L2039.96 237.4H1930.76L1906.76 305ZM1979.16 99.8L1945.56 194.2H2025.16L1991.56 99.8C1990.5 95.8 1989.3 91.8 1987.96 87.8C1986.63 83.8 1985.83 80.3333 1985.56 77.4C1985.03 80.0667 1984.1 83.5333 1982.76 87.8C1981.7 91.8 1980.5 95.8 1979.16 99.8ZM2236.63 305H2186.23V12.6H2237.03L2389.03 242.6H2374.23V12.6H2424.63V305H2374.23L2221.83 75.4H2236.63V305Z" fill="#06C6A8"/>
<path d="M703.6 391.6V684H652.4V391.6H703.6ZM768 583.2H691.2V537.6H757.2C774.8 537.6 788.133 533.2 797.2 524.4C806.533 515.333 811.2 502.8 811.2 486.8C811.2 470.8 806.533 458.533 797.2 450C788.133 441.467 775.067 437.2 758 437.2H686.4V391.6H768C787.733 391.6 804.8 395.6 819.2 403.6C833.6 411.6 844.8 422.8 852.8 437.2C860.8 451.333 864.8 468 864.8 487.2C864.8 505.867 860.8 522.533 852.8 537.2C844.8 551.6 833.6 562.933 819.2 571.2C804.8 579.2 787.733 583.2 768 583.2ZM991.069 391.6V684H939.869V391.6H991.069ZM948.669 684V636.8H1113.07V684H948.669ZM1172.99 577.2V391.6H1224.19V574C1224.19 595.067 1229.79 611.2 1240.99 622.4C1252.19 633.6 1268.06 639.2 1288.59 639.2C1309.39 639.2 1325.39 633.6 1336.59 622.4C1347.79 610.933 1353.39 594.8 1353.39 574V391.6H1404.59V577.2C1404.59 599.867 1399.79 619.6 1390.19 636.4C1380.86 652.933 1367.53 665.867 1350.19 675.2C1332.86 684.267 1312.33 688.8 1288.59 688.8C1265.13 688.8 1244.73 684.267 1227.39 675.2C1210.06 666.133 1196.59 653.2 1186.99 636.4C1177.66 619.6 1172.99 599.867 1172.99 577.2ZM1627.57 434.8C1608.37 434.8 1591.97 439.2 1578.37 448C1564.77 456.8 1554.37 469.067 1547.17 484.8C1539.97 500.267 1536.37 518.667 1536.37 540C1536.37 561.6 1540.24 580 1547.97 595.2C1555.71 610.133 1566.37 621.467 1579.97 629.2C1593.84 636.933 1609.71 640.8 1627.57 640.8C1640.64 640.8 1652.11 639.2 1661.97 636C1672.11 632.533 1680.64 627.6 1687.57 621.2C1694.51 614.533 1699.84 606.533 1703.57 597.2C1707.57 587.867 1709.57 577.467 1709.57 566V540.4L1733.57 564.8H1621.17V519.6H1757.17V684H1713.97L1709.57 636.8L1715.57 642.8C1711.31 651.6 1704.51 659.467 1695.17 666.4C1686.11 673.333 1675.31 678.8 1662.77 682.8C1650.24 686.533 1636.64 688.4 1621.97 688.4C1594.77 688.4 1570.64 682.267 1549.57 670C1528.77 657.467 1512.37 640 1500.37 617.6C1488.64 595.2 1482.77 568.933 1482.77 538.8C1482.77 509.2 1488.77 483.067 1500.77 460.4C1513.04 437.467 1530.11 419.467 1551.97 406.4C1574.11 393.333 1599.71 386.8 1628.77 386.8C1651.17 386.8 1671.44 390.933 1689.57 399.2C1707.71 407.2 1722.51 418.533 1733.97 433.2C1745.71 447.867 1752.91 465.2 1755.57 485.2H1701.57C1697.04 467.867 1687.97 455.2 1674.37 447.2C1660.77 438.933 1645.17 434.8 1627.57 434.8ZM1895.27 391.6V684H1844.07V391.6H1895.27ZM2042.49 684H1992.09V391.6H2042.89L2194.89 621.6H2180.09V391.6H2230.49V684H2180.09L2027.69 454.4H2042.49V684Z" fill="#151A26"/>
</svg>
