<svg width="18" height="18" viewBox="0 0 18 18" fill="none" xmlns="http://www.w3.org/2000/svg">
<g clip-path="url(#clip0_71_133)">
<path d="M9 18C4.02941 18 0 13.9706 0 9C0 4.02941 4.02941 0 9 0C13.9706 0 18 4.02941 18 9C18 13.9706 13.9706 18 9 18ZM9 1.28571C4.73951 1.28571 1.28571 4.73951 1.28571 9C1.28571 13.2605 4.73951 16.7143 9 16.7143C13.2605 16.7143 16.7143 13.2605 16.7143 9C16.7143 4.73951 13.2605 1.28571 9 1.28571Z" fill="white"/>
<path d="M8.26705 12.8568C8.10772 12.8564 7.95422 12.7968 7.83633 12.6896L4.79562 9.88036C4.55012 9.62382 4.55906 9.21691 4.8156 8.97141C5.04902 8.74797 5.41198 8.7326 5.66347 8.93536L8.18347 11.2689L12.6835 5.38679C12.8983 5.10271 13.3026 5.04659 13.5867 5.26143C13.8708 5.47626 13.9269 5.88057 13.712 6.16464L8.81347 12.5932C8.70601 12.7423 8.53983 12.8382 8.35705 12.8568H8.26705Z" fill="white"/>
</g>
<defs>
<clipPath id="clip0_71_133">
<rect width="18" height="18" fill="white"/>
</clipPath>
</defs>
</svg>
