<svg width="31" height="41" viewBox="0 0 31 41" fill="none" xmlns="http://www.w3.org/2000/svg">
<path d="M29.9998 8.6597V36.7025C29.9998 38.9117 28.209 40.7025 25.9998 40.7025H4C1.79086 40.7025 0 38.9117 0 36.7025V4.70252C0 2.49338 1.79086 0.702515 4 0.702515H21.3367L29.9998 8.6597Z" fill="#17B26A"/>
<g filter="url(#filter0_d_2001_2912)">
<path d="M29.9998 8.6597H22.3367C21.7844 8.6597 21.3367 8.21199 21.3367 7.6597V0.702515L29.9998 8.6597Z" fill="#ABEFC6"/>
</g>
<path d="M5.8136 27.5345C5.8136 26.9105 5.9486 26.3555 6.2186 25.8695C6.4886 25.3775 6.8636 24.9965 7.3436 24.7265C7.8296 24.4505 8.3786 24.3125 8.9906 24.3125C9.7406 24.3125 10.3826 24.5105 10.9166 24.9065C11.4506 25.3025 11.8076 25.8425 11.9876 26.5265H10.2956C10.1696 26.2625 9.9896 26.0615 9.7556 25.9235C9.5276 25.7855 9.2666 25.7165 8.9726 25.7165C8.4986 25.7165 8.1146 25.8815 7.8206 26.2115C7.5266 26.5415 7.3796 26.9825 7.3796 27.5345C7.3796 28.0865 7.5266 28.5275 7.8206 28.8575C8.1146 29.1875 8.4986 29.3525 8.9726 29.3525C9.2666 29.3525 9.5276 29.2835 9.7556 29.1455C9.9896 29.0075 10.1696 28.8065 10.2956 28.5425H11.9876C11.8076 29.2265 11.4506 29.7665 10.9166 30.1625C10.3826 30.5525 9.7406 30.7475 8.9906 30.7475C8.3786 30.7475 7.8296 30.6125 7.3436 30.3425C6.8636 30.0665 6.4886 29.6855 6.2186 29.1995C5.9486 28.7135 5.8136 28.1585 5.8136 27.5345ZM15.2161 30.7655C14.7541 30.7655 14.3401 30.6905 13.9741 30.5405C13.6081 30.3905 13.3141 30.1685 13.0921 29.8745C12.8761 29.5805 12.7621 29.2265 12.7501 28.8125H14.3881C14.4121 29.0465 14.4931 29.2265 14.6311 29.3525C14.7691 29.4725 14.9491 29.5325 15.1711 29.5325C15.3991 29.5325 15.5791 29.4815 15.7111 29.3795C15.8431 29.2715 15.9091 29.1245 15.9091 28.9385C15.9091 28.7825 15.8551 28.6535 15.7471 28.5515C15.6451 28.4495 15.5161 28.3655 15.3601 28.2995C15.2101 28.2335 14.9941 28.1585 14.7121 28.0745C14.3041 27.9485 13.9711 27.8225 13.7131 27.6965C13.4551 27.5705 13.2331 27.3845 13.0471 27.1385C12.8611 26.8925 12.7681 26.5715 12.7681 26.1755C12.7681 25.5875 12.9811 25.1285 13.4071 24.7985C13.8331 24.4625 14.3881 24.2945 15.0721 24.2945C15.7681 24.2945 16.3291 24.4625 16.7551 24.7985C17.1811 25.1285 17.4091 25.5905 17.4391 26.1845H15.7741C15.7621 25.9805 15.6871 25.8215 15.5491 25.7075C15.4111 25.5875 15.2341 25.5275 15.0181 25.5275C14.8321 25.5275 14.6821 25.5785 14.5681 25.6805C14.4541 25.7765 14.3971 25.9175 14.3971 26.1035C14.3971 26.3075 14.4931 26.4665 14.6851 26.5805C14.8771 26.6945 15.1771 26.8175 15.5851 26.9495C15.9931 27.0875 16.3231 27.2195 16.5751 27.3455C16.8331 27.4715 17.0551 27.6545 17.2411 27.8945C17.4271 28.1345 17.5201 28.4435 17.5201 28.8215C17.5201 29.1815 17.4271 29.5085 17.2411 29.8025C17.0611 30.0965 16.7971 30.3305 16.4491 30.5045C16.1011 30.6785 15.6901 30.7655 15.2161 30.7655ZM24.3982 24.3845L22.1572 30.7025H20.2312L17.9902 24.3845H19.6282L21.1942 29.1545L22.7692 24.3845H24.3982Z" fill="white"/>
<defs>
<filter id="filter0_d_2001_2912" x="18.3367" y="-0.297485" width="12.6631" height="11.9572" filterUnits="userSpaceOnUse" color-interpolation-filters="sRGB">
<feFlood flood-opacity="0" result="BackgroundImageFix"/>
<feColorMatrix in="SourceAlpha" type="matrix" values="0 0 0 0 0 0 0 0 0 0 0 0 0 0 0 0 0 0 127 0" result="hardAlpha"/>
<feOffset dx="-1" dy="1"/>
<feGaussianBlur stdDeviation="1"/>
<feComposite in2="hardAlpha" operator="out"/>
<feColorMatrix type="matrix" values="0 0 0 0 0 0 0 0 0 0 0 0 0 0 0 0 0 0 0.2 0"/>
<feBlend mode="normal" in2="BackgroundImageFix" result="effect1_dropShadow_2001_2912"/>
<feBlend mode="normal" in="SourceGraphic" in2="effect1_dropShadow_2001_2912" result="shape"/>
</filter>
</defs>
</svg>
