<svg width="16" height="17" viewBox="0 0 16 17" fill="none" xmlns="http://www.w3.org/2000/svg">
<path d="M14.4875 2.01267C14.1593 1.68455 13.7142 1.50021 13.2502 1.50021C12.7861 1.50021 12.341 1.68455 12.0128 2.01267L11.2415 2.78401L13.7162 5.25867L14.4875 4.48734C14.8156 4.15916 15 3.71408 15 3.25001C15 2.78593 14.8156 2.34085 14.4875 2.01267ZM13.0088 5.96601L10.5342 3.49134L4.93417 9.09134C4.52274 9.50257 4.22029 10.0099 4.05417 10.5673L3.52084 12.3573C3.49509 12.4437 3.49317 12.5355 3.51528 12.6228C3.53739 12.7102 3.58271 12.79 3.64645 12.8537C3.71018 12.9175 3.78996 12.9628 3.87734 12.9849C3.96472 13.007 4.05646 13.0051 4.14284 12.9793L5.93284 12.446C6.49032 12.2799 6.99761 11.9774 7.40884 11.566L13.0088 5.96601Z" fill="#ABB0B5"/>
<path d="M3.5 4C2.96957 4 2.46086 4.21071 2.08579 4.58579C1.71071 4.96086 1.5 5.46957 1.5 6V13C1.5 13.5304 1.71071 14.0391 2.08579 14.4142C2.46086 14.7893 2.96957 15 3.5 15H10.5C11.0304 15 11.5391 14.7893 11.9142 14.4142C12.2893 14.0391 12.5 13.5304 12.5 13V9.5C12.5 9.36739 12.4473 9.24022 12.3536 9.14645C12.2598 9.05268 12.1326 9 12 9C11.8674 9 11.7402 9.05268 11.6464 9.14645C11.5527 9.24022 11.5 9.36739 11.5 9.5V13C11.5 13.2652 11.3946 13.5196 11.2071 13.7071C11.0196 13.8946 10.7652 14 10.5 14H3.5C3.23478 14 2.98043 13.8946 2.79289 13.7071C2.60536 13.5196 2.5 13.2652 2.5 13V6C2.5 5.73478 2.60536 5.48043 2.79289 5.29289C2.98043 5.10536 3.23478 5 3.5 5H7C7.13261 5 7.25979 4.94732 7.35355 4.85355C7.44732 4.75979 7.5 4.63261 7.5 4.5C7.5 4.36739 7.44732 4.24021 7.35355 4.14645C7.25979 4.05268 7.13261 4 7 4H3.5Z" fill="#ABB0B5"/>
</svg>
