<svg width="31" height="41" viewBox="0 0 31 41" fill="none" xmlns="http://www.w3.org/2000/svg">
<path d="M29.9998 8.6597V36.7025C29.9998 38.9117 28.209 40.7025 25.9998 40.7025H4C1.79086 40.7025 0 38.9117 0 36.7025V4.70252C0 2.49338 1.79086 0.702515 4 0.702515H21.3367L29.9998 8.6597Z" fill="url(#paint0_linear_2001_2988)"/>
<path d="M7.69014 24.3845C8.35614 24.3845 8.93814 24.5165 9.43614 24.7805C9.93414 25.0445 10.3181 25.4165 10.5881 25.8965C10.8641 26.3705 11.0021 26.9195 11.0021 27.5435C11.0021 28.1615 10.8641 28.7105 10.5881 29.1905C10.3181 29.6705 9.93114 30.0425 9.42714 30.3065C8.92914 30.5705 8.35014 30.7025 7.69014 30.7025H5.32314V24.3845H7.69014ZM7.59114 29.3705C8.17314 29.3705 8.62614 29.2115 8.95014 28.8935C9.27414 28.5755 9.43614 28.1255 9.43614 27.5435C9.43614 26.9615 9.27414 26.5085 8.95014 26.1845C8.62614 25.8605 8.17314 25.6985 7.59114 25.6985H6.86214V29.3705H7.59114ZM14.8502 30.7655C14.2562 30.7655 13.7102 30.6275 13.2122 30.3515C12.7202 30.0755 12.3272 29.6915 12.0332 29.1995C11.7452 28.7015 11.6012 28.1435 11.6012 27.5255C11.6012 26.9075 11.7452 26.3525 12.0332 25.8605C12.3272 25.3685 12.7202 24.9845 13.2122 24.7085C13.7102 24.4325 14.2562 24.2945 14.8502 24.2945C15.4442 24.2945 15.9872 24.4325 16.4792 24.7085C16.9772 24.9845 17.3672 25.3685 17.6492 25.8605C17.9372 26.3525 18.0812 26.9075 18.0812 27.5255C18.0812 28.1435 17.9372 28.7015 17.6492 29.1995C17.3612 29.6915 16.9712 30.0755 16.4792 30.3515C15.9872 30.6275 15.4442 30.7655 14.8502 30.7655ZM14.8502 29.3615C15.3542 29.3615 15.7562 29.1935 16.0562 28.8575C16.3622 28.5215 16.5152 28.0775 16.5152 27.5255C16.5152 26.9675 16.3622 26.5235 16.0562 26.1935C15.7562 25.8575 15.3542 25.6895 14.8502 25.6895C14.3402 25.6895 13.9322 25.8545 13.6262 26.1845C13.3262 26.5145 13.1762 26.9615 13.1762 27.5255C13.1762 28.0835 13.3262 28.5305 13.6262 28.8665C13.9322 29.1965 14.3402 29.3615 14.8502 29.3615ZM18.6764 27.5345C18.6764 26.9105 18.8114 26.3555 19.0814 25.8695C19.3514 25.3775 19.7264 24.9965 20.2064 24.7265C20.6924 24.4505 21.2414 24.3125 21.8534 24.3125C22.6034 24.3125 23.2454 24.5105 23.7794 24.9065C24.3134 25.3025 24.6704 25.8425 24.8504 26.5265H23.1584C23.0324 26.2625 22.8524 26.0615 22.6184 25.9235C22.3904 25.7855 22.1294 25.7165 21.8354 25.7165C21.3614 25.7165 20.9774 25.8815 20.6834 26.2115C20.3894 26.5415 20.2424 26.9825 20.2424 27.5345C20.2424 28.0865 20.3894 28.5275 20.6834 28.8575C20.9774 29.1875 21.3614 29.3525 21.8354 29.3525C22.1294 29.3525 22.3904 29.2835 22.6184 29.1455C22.8524 29.0075 23.0324 28.8065 23.1584 28.5425H24.8504C24.6704 29.2265 24.3134 29.7665 23.7794 30.1625C23.2454 30.5525 22.6034 30.7475 21.8534 30.7475C21.2414 30.7475 20.6924 30.6125 20.2064 30.3425C19.7264 30.0665 19.3514 29.6855 19.0814 29.1995C18.8114 28.7135 18.6764 28.1585 18.6764 27.5345Z" fill="white"/>
<g filter="url(#filter0_d_2001_2988)">
<path d="M29.9998 8.6597H22.3367C21.7844 8.6597 21.3367 8.21199 21.3367 7.6597V0.702515L29.9998 8.6597Z" fill="#E0EAFF"/>
</g>
<defs>
<filter id="filter0_d_2001_2988" x="18.3367" y="-0.297485" width="12.6631" height="11.9572" filterUnits="userSpaceOnUse" color-interpolation-filters="sRGB">
<feFlood flood-opacity="0" result="BackgroundImageFix"/>
<feColorMatrix in="SourceAlpha" type="matrix" values="0 0 0 0 0 0 0 0 0 0 0 0 0 0 0 0 0 0 127 0" result="hardAlpha"/>
<feOffset dx="-1" dy="1"/>
<feGaussianBlur stdDeviation="1"/>
<feComposite in2="hardAlpha" operator="out"/>
<feColorMatrix type="matrix" values="0 0 0 0 0 0 0 0 0 0 0 0 0 0 0 0 0 0 0.2 0"/>
<feBlend mode="normal" in2="BackgroundImageFix" result="effect1_dropShadow_2001_2988"/>
<feBlend mode="normal" in="SourceGraphic" in2="effect1_dropShadow_2001_2988" result="shape"/>
</filter>
<linearGradient id="paint0_linear_2001_2988" x1="45.5" y1="-22.7975" x2="-16.5" y2="59.2025" gradientUnits="userSpaceOnUse">
<stop stop-color="#EEF4FF"/>
<stop offset="0.265" stop-color="#A4BCFD"/>
<stop offset="0.90788" stop-color="#444CE7"/>
</linearGradient>
</defs>
</svg>
