<svg width="31" height="41" viewBox="0 0 31 41" fill="none" xmlns="http://www.w3.org/2000/svg">
<path d="M29.9998 8.6597V36.7025C29.9998 38.9117 28.209 40.7025 25.9998 40.7025H4C1.79086 40.7025 0 38.9117 0 36.7025V4.70252C0 2.49338 1.79086 0.702515 4 0.702515H21.3367L29.9998 8.6597Z" fill="#6172F3"/>
<g filter="url(#filter0_d_2001_2834)">
<path d="M29.9998 8.6597H22.3367C21.7844 8.6597 21.3367 8.21199 21.3367 7.6597V0.702515L29.9998 8.6597Z" fill="#C7D7FE"/>
</g>
<path d="M4.47334 24.3845C5.13934 24.3845 5.72134 24.5165 6.21934 24.7805C6.71734 25.0445 7.10134 25.4165 7.37134 25.8965C7.64734 26.3705 7.78534 26.9195 7.78534 27.5435C7.78534 28.1615 7.64734 28.7105 7.37134 29.1905C7.10134 29.6705 6.71434 30.0425 6.21034 30.3065C5.71234 30.5705 5.13334 30.7025 4.47334 30.7025H2.10634V24.3845H4.47334ZM4.37434 29.3705C4.95634 29.3705 5.40934 29.2115 5.73334 28.8935C6.05734 28.5755 6.21934 28.1255 6.21934 27.5435C6.21934 26.9615 6.05734 26.5085 5.73334 26.1845C5.40934 25.8605 4.95634 25.6985 4.37434 25.6985H3.64534V29.3705H4.37434ZM11.6334 30.7655C11.0394 30.7655 10.4934 30.6275 9.9954 30.3515C9.5034 30.0755 9.1104 29.6915 8.8164 29.1995C8.5284 28.7015 8.3844 28.1435 8.3844 27.5255C8.3844 26.9075 8.5284 26.3525 8.8164 25.8605C9.1104 25.3685 9.5034 24.9845 9.9954 24.7085C10.4934 24.4325 11.0394 24.2945 11.6334 24.2945C12.2274 24.2945 12.7704 24.4325 13.2624 24.7085C13.7604 24.9845 14.1504 25.3685 14.4324 25.8605C14.7204 26.3525 14.8644 26.9075 14.8644 27.5255C14.8644 28.1435 14.7204 28.7015 14.4324 29.1995C14.1444 29.6915 13.7544 30.0755 13.2624 30.3515C12.7704 30.6275 12.2274 30.7655 11.6334 30.7655ZM11.6334 29.3615C12.1374 29.3615 12.5394 29.1935 12.8394 28.8575C13.1454 28.5215 13.2984 28.0775 13.2984 27.5255C13.2984 26.9675 13.1454 26.5235 12.8394 26.1935C12.5394 25.8575 12.1374 25.6895 11.6334 25.6895C11.1234 25.6895 10.7154 25.8545 10.4094 26.1845C10.1094 26.5145 9.9594 26.9615 9.9594 27.5255C9.9594 28.0835 10.1094 28.5305 10.4094 28.8665C10.7154 29.1965 11.1234 29.3615 11.6334 29.3615ZM15.4596 27.5345C15.4596 26.9105 15.5946 26.3555 15.8646 25.8695C16.1346 25.3775 16.5096 24.9965 16.9896 24.7265C17.4756 24.4505 18.0246 24.3125 18.6366 24.3125C19.3866 24.3125 20.0286 24.5105 20.5626 24.9065C21.0966 25.3025 21.4536 25.8425 21.6336 26.5265H19.9416C19.8156 26.2625 19.6356 26.0615 19.4016 25.9235C19.1736 25.7855 18.9126 25.7165 18.6186 25.7165C18.1446 25.7165 17.7606 25.8815 17.4666 26.2115C17.1726 26.5415 17.0256 26.9825 17.0256 27.5345C17.0256 28.0865 17.1726 28.5275 17.4666 28.8575C17.7606 29.1875 18.1446 29.3525 18.6186 29.3525C18.9126 29.3525 19.1736 29.2835 19.4016 29.1455C19.6356 29.0075 19.8156 28.8065 19.9416 28.5425H21.6336C21.4536 29.2265 21.0966 29.7665 20.5626 30.1625C20.0286 30.5525 19.3866 30.7475 18.6366 30.7475C18.0246 30.7475 17.4756 30.6125 16.9896 30.3425C16.5096 30.0665 16.1346 29.6855 15.8646 29.1995C15.5946 28.7135 15.4596 28.1585 15.4596 27.5345ZM26.4461 30.7025L25.1591 28.7675L24.0251 30.7025H22.2791L24.3041 27.4895L22.2341 24.3845H24.0251L25.2941 26.2925L26.4101 24.3845H28.1561L26.1491 27.5705L28.2371 30.7025H26.4461Z" fill="white"/>
<defs>
<filter id="filter0_d_2001_2834" x="18.3367" y="-0.297485" width="12.6631" height="11.9572" filterUnits="userSpaceOnUse" color-interpolation-filters="sRGB">
<feFlood flood-opacity="0" result="BackgroundImageFix"/>
<feColorMatrix in="SourceAlpha" type="matrix" values="0 0 0 0 0 0 0 0 0 0 0 0 0 0 0 0 0 0 127 0" result="hardAlpha"/>
<feOffset dx="-1" dy="1"/>
<feGaussianBlur stdDeviation="1"/>
<feComposite in2="hardAlpha" operator="out"/>
<feColorMatrix type="matrix" values="0 0 0 0 0 0 0 0 0 0 0 0 0 0 0 0 0 0 0.2 0"/>
<feBlend mode="normal" in2="BackgroundImageFix" result="effect1_dropShadow_2001_2834"/>
<feBlend mode="normal" in="SourceGraphic" in2="effect1_dropShadow_2001_2834" result="shape"/>
</filter>
</defs>
</svg>
