<svg width="31" height="41" viewBox="0 0 31 41" fill="none" xmlns="http://www.w3.org/2000/svg">
<path d="M29.9998 8.6597V36.7025C29.9998 38.9117 28.209 40.7025 25.9998 40.7025H4C1.79086 40.7025 0 38.9117 0 36.7025V4.70252C0 2.49338 1.79086 0.702515 4 0.702515H21.3367L29.9998 8.6597Z" fill="#F2F4F7"/>
<g filter="url(#filter0_d_2001_2698)">
<path d="M29.9998 8.6597H22.3367C21.7844 8.6597 21.3367 8.21199 21.3367 7.6597V0.702515L29.9998 8.6597Z" fill="#F2F4F7"/>
</g>
<path d="M11.3038 24.3845V25.6175H8.72981V26.9495H10.6558V28.1465H8.72981V30.7025H7.19081V24.3845H11.3038ZM13.6517 24.3845V30.7025H12.1127V24.3845H13.6517ZM16.306 29.5145H18.322V30.7025H14.767V24.3845H16.306V29.5145ZM20.595 25.6175V26.8955H22.656V28.0835H20.595V29.4695H22.926V30.7025H19.056V24.3845H22.926V25.6175H20.595Z" fill="#475467"/>
<defs>
<filter id="filter0_d_2001_2698" x="18.3367" y="-0.297485" width="12.6631" height="11.9572" filterUnits="userSpaceOnUse" color-interpolation-filters="sRGB">
<feFlood flood-opacity="0" result="BackgroundImageFix"/>
<feColorMatrix in="SourceAlpha" type="matrix" values="0 0 0 0 0 0 0 0 0 0 0 0 0 0 0 0 0 0 127 0" result="hardAlpha"/>
<feOffset dx="-1" dy="1"/>
<feGaussianBlur stdDeviation="1"/>
<feComposite in2="hardAlpha" operator="out"/>
<feColorMatrix type="matrix" values="0 0 0 0 0 0 0 0 0 0 0 0 0 0 0 0 0 0 0.2 0"/>
<feBlend mode="normal" in2="BackgroundImageFix" result="effect1_dropShadow_2001_2698"/>
<feBlend mode="normal" in="SourceGraphic" in2="effect1_dropShadow_2001_2698" result="shape"/>
</filter>
</defs>
</svg>
