<svg width="262" height="22" viewBox="0 0 262 22" fill="none" xmlns="http://www.w3.org/2000/svg">
<rect x="0.5" y="0.5" width="90" height="21" rx="10.5" fill="#F4F3FF"/>
<rect x="0.5" y="0.5" width="90" height="21" rx="10.5" stroke="#D9D6FE"/>
<circle cx="10" cy="11" r="3" fill="#7A5AF8"/>
<path d="M20.6369 6.27273V15H19.3201V6.27273H20.6369ZM23.7264 11.1136V15H22.4522V8.45455H23.6752V9.51989H23.7562C23.9068 9.1733 24.1426 8.89489 24.4636 8.68466C24.7875 8.47443 25.1951 8.36932 25.6866 8.36932C26.1326 8.36932 26.5233 8.46307 26.8585 8.65057C27.1937 8.83523 27.4537 9.1108 27.6383 9.47727C27.823 9.84375 27.9153 10.2969 27.9153 10.8366V15H26.6412V10.9901C26.6412 10.5156 26.5176 10.1449 26.2704 9.87784C26.0233 9.60795 25.6838 9.47301 25.252 9.47301C24.9565 9.47301 24.6937 9.53693 24.4636 9.66477C24.2363 9.79261 24.0559 9.98011 23.9224 10.2273C23.7917 10.4716 23.7264 10.767 23.7264 11.1136ZM32.7999 17.4545V8.45455H34.0442V9.51562H34.1507C34.2246 9.37926 34.3311 9.22159 34.4703 9.04261C34.6096 8.86364 34.8027 8.70739 35.0499 8.57386C35.2971 8.4375 35.6238 8.36932 36.03 8.36932C36.5584 8.36932 37.03 8.50284 37.4448 8.76989C37.8596 9.03693 38.1848 9.42187 38.4206 9.92472C38.6593 10.4276 38.7786 11.0327 38.7786 11.7401C38.7786 12.4474 38.6607 13.054 38.4249 13.5597C38.1891 14.0625 37.8652 14.4503 37.4533 14.723C37.0414 14.9929 36.5712 15.1278 36.0428 15.1278C35.6451 15.1278 35.3198 15.0611 35.0669 14.9276C34.8169 14.794 34.6209 14.6378 34.4789 14.4588C34.3368 14.2798 34.2275 14.1207 34.1507 13.9815H34.074V17.4545H32.7999ZM34.0485 11.7273C34.0485 12.1875 34.1152 12.5909 34.2488 12.9375C34.3823 13.2841 34.5755 13.5554 34.8283 13.7514C35.0811 13.9446 35.3908 14.0412 35.7573 14.0412C36.138 14.0412 36.4561 13.9403 36.7118 13.7386C36.9675 13.5341 37.1607 13.2571 37.2914 12.9077C37.4249 12.5582 37.4917 12.1648 37.4917 11.7273C37.4917 11.2955 37.4263 10.9077 37.2956 10.5639C37.1678 10.2202 36.9746 9.94886 36.7161 9.75C36.4604 9.55114 36.1408 9.4517 35.7573 9.4517C35.388 9.4517 35.0755 9.54687 34.8198 9.73722C34.5669 9.92756 34.3752 10.1932 34.2445 10.5341C34.1138 10.875 34.0485 11.2727 34.0485 11.7273ZM40.2061 15V8.45455H41.4377V9.49432H41.5059C41.6252 9.14205 41.8354 8.86506 42.1365 8.66335C42.4405 8.45881 42.7843 8.35653 43.1678 8.35653C43.2473 8.35653 43.3411 8.35937 43.449 8.36506C43.5598 8.37074 43.6465 8.37784 43.709 8.38636V9.60511C43.6578 9.59091 43.5669 9.57528 43.4363 9.55824C43.3056 9.53835 43.1749 9.52841 43.0442 9.52841C42.7431 9.52841 42.4746 9.59233 42.2388 9.72017C42.0059 9.84517 41.8212 10.0199 41.6848 10.2443C41.5485 10.4659 41.4803 10.7187 41.4803 11.0028V15H40.2061ZM47.3343 15.1321C46.7207 15.1321 46.1852 14.9915 45.7278 14.7102C45.2704 14.429 44.9153 14.0355 44.6625 13.5298C44.4096 13.0241 44.2832 12.4332 44.2832 11.7571C44.2832 11.0781 44.4096 10.4844 44.6625 9.97585C44.9153 9.46733 45.2704 9.07244 45.7278 8.79119C46.1852 8.50994 46.7207 8.36932 47.3343 8.36932C47.948 8.36932 48.4835 8.50994 48.9409 8.79119C49.3983 9.07244 49.7534 9.46733 50.0062 9.97585C50.2591 10.4844 50.3855 11.0781 50.3855 11.7571C50.3855 12.4332 50.2591 13.0241 50.0062 13.5298C49.7534 14.0355 49.3983 14.429 48.9409 14.7102C48.4835 14.9915 47.948 15.1321 47.3343 15.1321ZM47.3386 14.0625C47.7363 14.0625 48.0659 13.9574 48.3272 13.7472C48.5886 13.5369 48.7818 13.2571 48.9068 12.9077C49.0346 12.5582 49.0985 12.1733 49.0985 11.7528C49.0985 11.3352 49.0346 10.9517 48.9068 10.6023C48.7818 10.25 48.5886 9.96733 48.3272 9.75426C48.0659 9.54119 47.7363 9.43466 47.3386 9.43466C46.938 9.43466 46.6056 9.54119 46.3414 9.75426C46.0801 9.96733 45.8855 10.25 45.7576 10.6023C45.6326 10.9517 45.5701 11.3352 45.5701 11.7528C45.5701 12.1733 45.6326 12.5582 45.7576 12.9077C45.8855 13.2571 46.0801 13.5369 46.3414 13.7472C46.6056 13.9574 46.938 14.0625 47.3386 14.0625ZM54.552 17.5909C54.0321 17.5909 53.5847 17.5227 53.2097 17.3864C52.8375 17.25 52.5336 17.0696 52.2978 16.8452C52.062 16.6207 51.8858 16.375 51.7694 16.108L52.8645 15.6562C52.9412 15.7812 53.0435 15.9134 53.1713 16.0526C53.302 16.1946 53.4782 16.3153 53.6998 16.4148C53.9242 16.5142 54.2125 16.5639 54.5648 16.5639C55.0478 16.5639 55.4469 16.446 55.7623 16.2102C56.0776 15.9773 56.2353 15.6051 56.2353 15.0938V13.8068H56.1543C56.0776 13.946 55.9668 14.1009 55.8219 14.2713C55.6799 14.4418 55.4838 14.5895 55.2338 14.7145C54.9838 14.8395 54.6586 14.902 54.258 14.902C53.7409 14.902 53.275 14.7812 52.8603 14.5398C52.4483 14.2955 52.1216 13.9361 51.8801 13.4616C51.6415 12.9844 51.5222 12.3977 51.5222 11.7017C51.5222 11.0057 51.6401 10.4091 51.8759 9.91193C52.1145 9.41477 52.4412 9.03409 52.856 8.76989C53.2708 8.50284 53.7409 8.36932 54.2665 8.36932C54.6728 8.36932 55.0009 8.4375 55.2509 8.57386C55.5009 8.70739 55.6955 8.86364 55.8347 9.04261C55.9767 9.22159 56.0861 9.37926 56.1628 9.51562H56.2566V8.45455H57.5051V15.1449C57.5051 15.7074 57.3745 16.169 57.1131 16.5298C56.8517 16.8906 56.498 17.1577 56.052 17.331C55.6088 17.5043 55.1088 17.5909 54.552 17.5909ZM54.5392 13.8452C54.9057 13.8452 55.2154 13.7599 55.4682 13.5895C55.7239 13.4162 55.9171 13.169 56.0478 12.848C56.1813 12.5241 56.248 12.1364 56.248 11.6847C56.248 11.2443 56.1827 10.8565 56.052 10.5213C55.9213 10.1861 55.7296 9.92472 55.4767 9.73722C55.2239 9.54687 54.9114 9.4517 54.5392 9.4517C54.1557 9.4517 53.8361 9.55114 53.5804 9.75C53.3248 9.94602 53.1316 10.2131 53.0009 10.5511C52.873 10.8892 52.8091 11.267 52.8091 11.6847C52.8091 12.1136 52.8745 12.4901 53.0051 12.8139C53.1358 13.1378 53.329 13.3906 53.5847 13.5724C53.8432 13.7543 54.1614 13.8452 54.5392 13.8452ZM59.214 15V8.45455H60.4455V9.49432H60.5137C60.633 9.14205 60.8432 8.86506 61.1444 8.66335C61.4483 8.45881 61.7921 8.35653 62.1756 8.35653C62.2551 8.35653 62.3489 8.35937 62.4569 8.36506C62.5676 8.37074 62.6543 8.37784 62.7168 8.38636V9.60511C62.6657 9.59091 62.5748 9.57528 62.4441 9.55824C62.3134 9.53835 62.1827 9.52841 62.052 9.52841C61.7509 9.52841 61.4824 9.59233 61.2466 9.72017C61.0137 9.84517 60.829 10.0199 60.6926 10.2443C60.5563 10.4659 60.4881 10.7187 60.4881 11.0028V15H59.214ZM66.4061 15.1321C65.7612 15.1321 65.2058 14.9943 64.7399 14.7188C64.2768 14.4403 63.9189 14.0497 63.666 13.5469C63.416 13.0412 63.291 12.4489 63.291 11.7699C63.291 11.0994 63.416 10.5085 63.666 9.99716C63.9189 9.4858 64.2711 9.08665 64.7228 8.79972C65.1774 8.51278 65.7086 8.36932 66.3166 8.36932C66.6859 8.36932 67.0439 8.4304 67.3904 8.55256C67.737 8.67472 68.0481 8.86648 68.3237 9.12784C68.5993 9.3892 68.8166 9.72869 68.9757 10.1463C69.1348 10.5611 69.2143 11.0653 69.2143 11.6591V12.1108H64.0112V11.1562H67.9657C67.9657 10.821 67.8975 10.5241 67.7612 10.2656C67.6248 10.0043 67.4331 9.7983 67.1859 9.64773C66.9416 9.49716 66.6547 9.42188 66.3251 9.42188C65.9672 9.42188 65.6547 9.50994 65.3876 9.68608C65.1234 9.85937 64.9189 10.0866 64.774 10.3679C64.6319 10.6463 64.5609 10.9489 64.5609 11.2756V12.0213C64.5609 12.4588 64.6376 12.831 64.791 13.1378C64.9473 13.4446 65.1646 13.679 65.443 13.8409C65.7214 14 66.0467 14.0795 66.4189 14.0795C66.6603 14.0795 66.8805 14.0455 67.0794 13.9773C67.2782 13.9062 67.4501 13.8011 67.595 13.6619C67.7399 13.5227 67.8507 13.3509 67.9274 13.1463L69.1333 13.3636C69.0368 13.7187 68.8635 14.0298 68.6135 14.2969C68.3663 14.5611 68.0552 14.767 67.6802 14.9148C67.3081 15.0597 66.8833 15.1321 66.4061 15.1321ZM75.5328 10.0526L74.378 10.2571C74.3297 10.1094 74.253 9.96875 74.1479 9.83523C74.0456 9.7017 73.9064 9.59233 73.7303 9.5071C73.5542 9.42187 73.334 9.37926 73.0698 9.37926C72.709 9.37926 72.4078 9.46023 72.1664 9.62216C71.9249 9.78125 71.8042 9.98722 71.8042 10.2401C71.8042 10.4588 71.8851 10.6349 72.0471 10.7685C72.209 10.902 72.4703 11.0114 72.8311 11.0966L73.8709 11.3352C74.4732 11.4744 74.9221 11.6889 75.2175 11.9787C75.513 12.2685 75.6607 12.6449 75.6607 13.108C75.6607 13.5 75.5471 13.8494 75.3198 14.1562C75.0953 14.4602 74.7814 14.6989 74.378 14.8722C73.9775 15.0455 73.513 15.1321 72.9846 15.1321C72.2516 15.1321 71.6536 14.9759 71.1905 14.6634C70.7275 14.348 70.4434 13.9006 70.3382 13.321L71.5698 13.1335C71.6465 13.4545 71.8042 13.6974 72.0428 13.8622C72.2814 14.0241 72.5925 14.1051 72.976 14.1051C73.3936 14.1051 73.7275 14.0185 73.9775 13.8452C74.2275 13.669 74.3525 13.4545 74.3525 13.2017C74.3525 12.9972 74.2757 12.8253 74.1223 12.6861C73.9718 12.5469 73.7402 12.4418 73.4277 12.3707L72.3198 12.1278C71.709 11.9886 71.2573 11.767 70.9647 11.4631C70.6749 11.1591 70.53 10.7741 70.53 10.3082C70.53 9.92187 70.638 9.58381 70.8539 9.29403C71.0698 9.00426 71.3681 8.77841 71.7488 8.61648C72.1294 8.4517 72.5655 8.36932 73.057 8.36932C73.7644 8.36932 74.3212 8.52273 74.7275 8.82955C75.1337 9.13352 75.4022 9.54119 75.5328 10.0526ZM81.9664 10.0526L80.8116 10.2571C80.7633 10.1094 80.6866 9.96875 80.5815 9.83523C80.4792 9.7017 80.34 9.59233 80.1639 9.5071C79.9877 9.42187 79.7676 9.37926 79.5034 9.37926C79.1426 9.37926 78.8414 9.46023 78.6 9.62216C78.3585 9.78125 78.2377 9.98722 78.2377 10.2401C78.2377 10.4588 78.3187 10.6349 78.4806 10.7685C78.6426 10.902 78.9039 11.0114 79.2647 11.0966L80.3045 11.3352C80.9068 11.4744 81.3556 11.6889 81.6511 11.9787C81.9466 12.2685 82.0943 12.6449 82.0943 13.108C82.0943 13.5 81.9806 13.8494 81.7534 14.1562C81.5289 14.4602 81.215 14.6989 80.8116 14.8722C80.411 15.0455 79.9466 15.1321 79.4181 15.1321C78.6852 15.1321 78.0872 14.9759 77.6241 14.6634C77.161 14.348 76.877 13.9006 76.7718 13.321L78.0034 13.1335C78.0801 13.4545 78.2377 13.6974 78.4764 13.8622C78.715 14.0241 79.0261 14.1051 79.4096 14.1051C79.8272 14.1051 80.161 14.0185 80.411 13.8452C80.661 13.669 80.786 13.4545 80.786 13.2017C80.786 12.9972 80.7093 12.8253 80.5559 12.6861C80.4054 12.5469 80.1738 12.4418 79.8613 12.3707L78.7534 12.1278C78.1426 11.9886 77.6909 11.767 77.3983 11.4631C77.1085 11.1591 76.9636 10.7741 76.9636 10.3082C76.9636 9.92187 77.0716 9.58381 77.2875 9.29403C77.5034 9.00426 77.8017 8.77841 78.1824 8.61648C78.563 8.4517 78.9991 8.36932 79.4906 8.36932C80.198 8.36932 80.7548 8.52273 81.161 8.82955C81.5673 9.13352 81.8358 9.54119 81.9664 10.0526Z" fill="#5925DC"/>
<g opacity="0.4">
<path d="M252 11.8333C252.46 11.8333 252.833 11.4602 252.833 11C252.833 10.5398 252.46 10.1667 252 10.1667C251.54 10.1667 251.167 10.5398 251.167 11C251.167 11.4602 251.54 11.8333 252 11.8333Z" stroke="#18191B" stroke-width="1.66667" stroke-linecap="round" stroke-linejoin="round"/>
<path d="M257.833 11.8333C258.294 11.8333 258.667 11.4602 258.667 11C258.667 10.5398 258.294 10.1667 257.833 10.1667C257.373 10.1667 257 10.5398 257 11C257 11.4602 257.373 11.8333 257.833 11.8333Z" stroke="#18191B" stroke-width="1.66667" stroke-linecap="round" stroke-linejoin="round"/>
<path d="M246.167 11.8333C246.627 11.8333 247 11.4602 247 11C247 10.5398 246.627 10.1667 246.167 10.1667C245.707 10.1667 245.333 10.5398 245.333 11C245.333 11.4602 245.707 11.8333 246.167 11.8333Z" stroke="#18191B" stroke-width="1.66667" stroke-linecap="round" stroke-linejoin="round"/>
</g>
</svg>
