<svg width="18" height="18" viewBox="0 0 18 18" fill="none" xmlns="http://www.w3.org/2000/svg">
<circle cx="14.5" cy="3.5" r="3" stroke="black"/>
<path d="M5.4063 7.26564H1.69495C0.759804 7.26564 0 6.48825 0 5.53145V1.73419C0 0.777393 0.759804 0 1.69495 0H5.4063C6.34144 0 7.10125 0.777393 7.10125 1.73419V5.53145C7.10125 6.48825 6.34144 7.26564 5.4063 7.26564ZM1.69495 1.04649C1.34427 1.04649 1.02281 1.34549 1.02281 1.73419V5.53145C1.02281 5.89025 1.31505 6.21915 1.69495 6.21915H5.4063C5.75698 6.21915 6.07843 5.92015 6.07843 5.53145V1.73419C6.07843 1.37539 5.7862 1.04649 5.4063 1.04649H1.69495Z" fill="#232323"/>
<path d="M16.3292 18H12.6708C11.749 18 11 17.251 11 16.3292V12.6708C11 11.749 11.749 11 12.6708 11H16.3292C17.251 11 18 11.749 18 12.6708V16.3292C18 17.251 17.251 18 16.3292 18ZM12.6708 12.0082C12.3251 12.0082 12.0082 12.2963 12.0082 12.6708V16.3292C12.0082 16.6749 12.2963 16.9918 12.6708 16.9918H16.3292C16.6749 16.9918 16.9918 16.7037 16.9918 16.3292V12.6708C16.9918 12.3251 16.7037 12.0082 16.3292 12.0082H12.6708Z" fill="#232323"/>
<rect x="0.5" y="11.5" width="6" height="6" rx="0.5" stroke="black" stroke-dasharray="2 2"/>
</svg>
