<svg width="18" height="18" viewBox="0 0 18 18" fill="none" xmlns="http://www.w3.org/2000/svg">
<path d="M17.2779 8H4.72214C4.3233 8 4 8.4477 4 9C4 9.5523 4.3233 10 4.72214 10H17.2779C17.6767 10 18 9.5523 18 9C18 8.4477 17.6767 8 17.2779 8Z" fill="#232323"/>
<path d="M17.0715 2H0.928462C0.415672 2 0 2.4477 0 3C0 3.5523 0.415672 4 0.928462 4H17.0715C17.5843 4 18 3.5523 18 3C18 2.4477 17.5843 2 17.0715 2Z" fill="#232323"/>
<path d="M13.2779 14H0.722137C0.323301 14 0 14.4477 0 15C0 15.5523 0.323301 16 0.722137 16H13.2779C13.6767 16 14 15.5523 14 15C14 14.4477 13.6767 14 13.2779 14Z" fill="#232323"/>
<path d="M1 10C1.55228 10 2 9.55228 2 9C2 8.44772 1.55228 8 1 8C0.447715 8 0 8.44772 0 9C0 9.55228 0.447715 10 1 10Z" fill="#232323"/>
<path d="M17 16C17.5523 16 18 15.5523 18 15C18 14.4477 17.5523 14 17 14C16.4477 14 16 14.4477 16 15C16 15.5523 16.4477 16 17 16Z" fill="#232323"/>
</svg>
