<svg width="31" height="40" viewBox="0 0 31 40" fill="none" xmlns="http://www.w3.org/2000/svg">
<path d="M29.9998 7.95719V36C29.9998 38.2091 28.209 40 25.9998 40H4C1.79086 40 0 38.2091 0 36V4C0 1.79086 1.79086 0 4 0H21.3367L29.9998 7.95719Z" fill="#344054"/>
<g filter="url(#filter0_d_2001_3822)">
<path d="M29.9998 7.95719H22.3367C21.7844 7.95719 21.3367 7.50947 21.3367 6.95719V0L29.9998 7.95719Z" fill="#E4E7EC"/>
</g>
<path d="M9.59104 30L8.27704 27.615H7.90804V30H6.36904V23.682H8.95204C9.45004 23.682 9.87304 23.769 10.221 23.943C10.575 24.117 10.839 24.357 11.013 24.663C11.187 24.963 11.274 25.299 11.274 25.671C11.274 26.091 11.154 26.466 10.914 26.796C10.68 27.126 10.332 27.36 9.87004 27.498L11.328 30H9.59104ZM7.90804 26.526H8.86204C9.14404 26.526 9.35404 26.457 9.49204 26.319C9.63604 26.181 9.70804 25.986 9.70804 25.734C9.70804 25.494 9.63604 25.305 9.49204 25.167C9.35404 25.029 9.14404 24.96 8.86204 24.96H7.90804V26.526ZM16.1731 28.884H13.8151L13.4371 30H11.8261L14.1121 23.682H15.8941L18.1801 30H16.5511L16.1731 28.884ZM15.7771 27.696L14.9941 25.383L14.2201 27.696H15.7771ZM22.0979 30L20.7839 27.615H20.4149V30H18.8759V23.682H21.4589C21.9569 23.682 22.3799 23.769 22.7279 23.943C23.0819 24.117 23.3459 24.357 23.5199 24.663C23.6939 24.963 23.7809 25.299 23.7809 25.671C23.7809 26.091 23.6609 26.466 23.4209 26.796C23.1869 27.126 22.8389 27.36 22.3769 27.498L23.8349 30H22.0979ZM20.4149 26.526H21.3689C21.6509 26.526 21.8609 26.457 21.9989 26.319C22.1429 26.181 22.2149 25.986 22.2149 25.734C22.2149 25.494 22.1429 25.305 21.9989 25.167C21.8609 25.029 21.6509 24.96 21.3689 24.96H20.4149V26.526Z" fill="white"/>
<defs>
<filter id="filter0_d_2001_3822" x="18.3367" y="-1" width="12.6631" height="11.9572" filterUnits="userSpaceOnUse" color-interpolation-filters="sRGB">
<feFlood flood-opacity="0" result="BackgroundImageFix"/>
<feColorMatrix in="SourceAlpha" type="matrix" values="0 0 0 0 0 0 0 0 0 0 0 0 0 0 0 0 0 0 127 0" result="hardAlpha"/>
<feOffset dx="-1" dy="1"/>
<feGaussianBlur stdDeviation="1"/>
<feComposite in2="hardAlpha" operator="out"/>
<feColorMatrix type="matrix" values="0 0 0 0 0 0 0 0 0 0 0 0 0 0 0 0 0 0 0.2 0"/>
<feBlend mode="normal" in2="BackgroundImageFix" result="effect1_dropShadow_2001_3822"/>
<feBlend mode="normal" in="SourceGraphic" in2="effect1_dropShadow_2001_3822" result="shape"/>
</filter>
</defs>
</svg>
