<svg width="31" height="40" viewBox="0 0 31 40" fill="none" xmlns="http://www.w3.org/2000/svg">
<path d="M29.9998 7.95719V36C29.9998 38.2091 28.209 40 25.9998 40H4C1.79086 40 0 38.2091 0 36V4C0 1.79086 1.79086 0 4 0H21.3367L29.9998 7.95719Z" fill="#344054"/>
<g filter="url(#filter0_d_2001_3816)">
<path d="M29.9998 7.95719H22.3367C21.7844 7.95719 21.3367 7.50947 21.3367 6.95719V0L29.9998 7.95719Z" fill="#E4E7EC"/>
</g>
<path d="M10.3801 28.74H13.0981V30H8.63408V28.83L11.3341 24.942H8.63408V23.682H13.0981V24.852L10.3801 28.74ZM15.6424 23.682V30H14.1034V23.682H15.6424ZM21.5727 25.716C21.5727 26.082 21.4887 26.418 21.3207 26.724C21.1527 27.024 20.8947 27.267 20.5467 27.453C20.1987 27.639 19.7667 27.732 19.2507 27.732H18.2967V30H16.7577V23.682H19.2507C19.7547 23.682 20.1807 23.769 20.5287 23.943C20.8767 24.117 21.1377 24.357 21.3117 24.663C21.4857 24.969 21.5727 25.32 21.5727 25.716ZM19.1337 26.508C19.4277 26.508 19.6467 26.439 19.7907 26.301C19.9347 26.163 20.0067 25.968 20.0067 25.716C20.0067 25.464 19.9347 25.269 19.7907 25.131C19.6467 24.993 19.4277 24.924 19.1337 24.924H18.2967V26.508H19.1337Z" fill="white"/>
<defs>
<filter id="filter0_d_2001_3816" x="18.3367" y="-1" width="12.6631" height="11.9572" filterUnits="userSpaceOnUse" color-interpolation-filters="sRGB">
<feFlood flood-opacity="0" result="BackgroundImageFix"/>
<feColorMatrix in="SourceAlpha" type="matrix" values="0 0 0 0 0 0 0 0 0 0 0 0 0 0 0 0 0 0 127 0" result="hardAlpha"/>
<feOffset dx="-1" dy="1"/>
<feGaussianBlur stdDeviation="1"/>
<feComposite in2="hardAlpha" operator="out"/>
<feColorMatrix type="matrix" values="0 0 0 0 0 0 0 0 0 0 0 0 0 0 0 0 0 0 0.2 0"/>
<feBlend mode="normal" in2="BackgroundImageFix" result="effect1_dropShadow_2001_3816"/>
<feBlend mode="normal" in="SourceGraphic" in2="effect1_dropShadow_2001_3816" result="shape"/>
</filter>
</defs>
</svg>
